<?xml version="1.0" encoding="UTF-8" standalone="no"?>
<!DOCTYPE svg PUBLIC "-//W3C//DTD SVG 1.0//EN" "http://www.w3.org/TR/2001/PR-SVG-20010719/DTD/svg10.dtd">
<svg width="34cm" height="23cm" viewBox="79 19 665 442" xmlns="http://www.w3.org/2000/svg" xmlns:xlink="http://www.w3.org/1999/xlink">
  <g>
    <rect style="fill: #cbdae2" x="400" y="380" width="120" height="80"/>
    <rect style="fill: none; fill-opacity:0; stroke-width: 2; stroke: #000000" x="400" y="380" width="120" height="80"/>
    <text font-size="12.7998" style="fill: #000000;text-anchor:middle;font-family:sans-serif;font-style:normal;font-weight:700" x="460" y="424.85">
      <tspan x="460" y="424.85">AGENT</tspan>
    </text>
    <text font-size="9.59985" style="fill: #000000;text-anchor:end;font-family:sans-serif;font-style:normal;font-weight:700" x="516.4" y="456.4">SERVICE</text>
  </g>
  <g>
    <rect style="fill: #b9c1e0" x="80" y="260" width="143.9" height="84.8"/>
    <rect style="fill: none; fill-opacity:0; stroke-width: 2; stroke: #000000" x="80" y="260" width="143.9" height="84.8"/>
    <text font-size="12.7998" style="fill: #000000;text-anchor:middle;font-family:sans-serif;font-style:normal;font-weight:700" x="151.95" y="307.25">
      <tspan x="151.95" y="307.25">MASTER</tspan>
    </text>
    <text font-size="9.59985" style="fill: #000000;text-anchor:end;font-family:sans-serif;font-style:normal;font-weight:700" x="220.3" y="341.2">SERVICE</text>
  </g>
  <g>
    <rect style="fill: #ccede2" x="620" y="60" width="122.1" height="78.8"/>
    <rect style="fill: none; fill-opacity:0; stroke-width: 2; stroke: #000000" x="620" y="60" width="122.1" height="78.8"/>
    <text font-size="12.7998" style="fill: #000000;text-anchor:middle;font-family:sans-serif;font-style:normal;font-weight:700" x="681.05" y="104.25">
      <tspan x="681.05" y="104.25">STORE</tspan>
    </text>
    <text font-size="9.59985" style="fill: #000000;text-anchor:end;font-family:sans-serif;font-style:normal;font-weight:700" x="738.5" y="135.2">SERVICE</text>
  </g>
  <g>
    <path style="fill: none; fill-opacity:0; stroke-width: 2; stroke-linejoin: round; stroke: #000000" d="M 311.95,331.6 A 8,8 0 0 0 303.95,323.6"/>
    <line style="fill: none; fill-opacity:0; stroke-width: 2; stroke-linejoin: round; stroke: #000000" x1="223.9" y1="323.6" x2="303.95" y2="323.6"/>
    <path style="fill: none; fill-opacity:0; stroke-width: 2; stroke-linejoin: round; stroke: #000000" d="M 311.95,432 A 8,8 0 0 0 319.95,440"/>
    <line style="fill: none; fill-opacity:0; stroke-width: 2; stroke-linejoin: round; stroke: #000000" x1="311.95" y1="331.6" x2="311.95" y2="432"/>
    <line style="fill: none; fill-opacity:0; stroke-width: 2; stroke-linejoin: round; stroke: #000000" x1="319.95" y1="440" x2="390.264" y2="440"/>
    <polygon style="fill: #000000" points="397.764,440 387.764,445 390.264,440 387.764,435 "/>
    <polygon style="fill: none; fill-opacity:0; stroke-width: 2; stroke: #000000" points="397.764,440 387.764,445 390.264,440 387.764,435 "/>
  </g>
  <g>
    <rect style="fill: #cbdae2" x="340" y="20" width="120" height="80"/>
    <rect style="fill: none; fill-opacity:0; stroke-width: 2; stroke: #000000" x="340" y="20" width="120" height="80"/>
    <text font-size="12.7998" style="fill: #000000;text-anchor:middle;font-family:sans-serif;font-style:normal;font-weight:700" x="400" y="64.85">
      <tspan x="400" y="64.85">AGENT</tspan>
    </text>
    <text font-size="9.59985" style="fill: #000000;text-anchor:end;font-family:sans-serif;font-style:normal;font-weight:700" x="456.4" y="96.4">SERVICE</text>
  </g>
  <g>
    <rect style="fill: #ccede2" x="620" y="340" width="122.1" height="78.8"/>
    <rect style="fill: none; fill-opacity:0; stroke-width: 2; stroke: #000000" x="620" y="340" width="122.1" height="78.8"/>
    <text font-size="12.7998" style="fill: #000000;text-anchor:middle;font-family:sans-serif;font-style:normal;font-weight:700" x="681.05" y="384.25">
      <tspan x="681.05" y="384.25">STORE</tspan>
    </text>
    <text font-size="9.59985" style="fill: #000000;text-anchor:end;font-family:sans-serif;font-style:normal;font-weight:700" x="738.5" y="415.2">SERVICE</text>
  </g>
  <g>
    <path style="fill: none; fill-opacity:0; stroke-width: 2; stroke-linejoin: round; stroke: #000000" d="M 273.95,281.2 A 8,8 0 0 0 281.95,273.2"/>
    <line style="fill: none; fill-opacity:0; stroke-width: 2; stroke-linejoin: round; stroke: #000000" x1="223.9" y1="281.2" x2="273.95" y2="281.2"/>
    <path style="fill: none; fill-opacity:0; stroke-width: 2; stroke-linejoin: round; stroke: #000000" d="M 289.95,80 A 8,8 0 0 0 281.95,88"/>
    <line style="fill: none; fill-opacity:0; stroke-width: 2; stroke-linejoin: round; stroke: #000000" x1="281.95" y1="273.2" x2="281.95" y2="88"/>
    <line style="fill: none; fill-opacity:0; stroke-width: 2; stroke-linejoin: round; stroke: #000000" x1="289.95" y1="80" x2="330.264" y2="80"/>
    <polygon style="fill: #000000" points="337.764,80 327.764,85 330.264,80 327.764,75 "/>
    <polygon style="fill: none; fill-opacity:0; stroke-width: 2; stroke: #000000" points="337.764,80 327.764,85 330.264,80 327.764,75 "/>
  </g>
  <g>
    <path style="fill: none; fill-opacity:0; stroke-width: 2; stroke-linejoin: round; stroke: #000000" d="M 540,48 A 8,8 0 0 0 532,40"/>
    <line style="fill: none; fill-opacity:0; stroke-width: 2; stroke-linejoin: round; stroke: #000000" x1="460" y1="40" x2="532" y2="40"/>
    <path style="fill: none; fill-opacity:0; stroke-width: 2; stroke-linejoin: round; stroke: #000000" d="M 540,71.7 A 8,8 0 0 0 548,79.7"/>
    <line style="fill: none; fill-opacity:0; stroke-width: 2; stroke-linejoin: round; stroke: #000000" x1="540" y1="48" x2="540" y2="71.7"/>
    <line style="fill: none; fill-opacity:0; stroke-width: 2; stroke-linejoin: round; stroke: #000000" x1="548" y1="79.7" x2="610.264" y2="79.7"/>
    <polygon style="fill: #000000" points="617.764,79.7 607.764,84.7 610.264,79.7 607.764,74.7 "/>
    <polygon style="fill: none; fill-opacity:0; stroke-width: 2; stroke: #000000" points="617.764,79.7 607.764,84.7 610.264,79.7 607.764,74.7 "/>
  </g>
  <g>
    <rect style="fill: #ccede2" x="620" y="200" width="122.1" height="78.8"/>
    <rect style="fill: none; fill-opacity:0; stroke-width: 2; stroke: #000000" x="620" y="200" width="122.1" height="78.8"/>
    <text font-size="12.7998" style="fill: #000000;text-anchor:middle;font-family:sans-serif;font-style:normal;font-weight:700" x="681.05" y="244.25">
      <tspan x="681.05" y="244.25">STORE</tspan>
    </text>
    <text font-size="9.59985" style="fill: #000000;text-anchor:end;font-family:sans-serif;font-style:normal;font-weight:700" x="738.5" y="275.2">SERVICE</text>
  </g>
  <g>
    <path style="fill: none; fill-opacity:0; stroke-width: 2; stroke-linejoin: round; stroke: #000000" d="M 562,420 A 8,8 0 0 0 570,412"/>
    <line style="fill: none; fill-opacity:0; stroke-width: 2; stroke-linejoin: round; stroke: #000000" x1="520" y1="420" x2="562" y2="420"/>
    <path style="fill: none; fill-opacity:0; stroke-width: 2; stroke-linejoin: round; stroke: #000000" d="M 578,239.4 A 8,8 0 0 0 570,247.4"/>
    <line style="fill: none; fill-opacity:0; stroke-width: 2; stroke-linejoin: round; stroke: #000000" x1="570" y1="412" x2="570" y2="247.4"/>
    <line style="fill: none; fill-opacity:0; stroke-width: 2; stroke-linejoin: round; stroke: #000000" x1="578" y1="239.4" x2="610.264" y2="239.4"/>
    <polygon style="fill: #000000" points="617.764,239.4 607.764,244.4 610.264,239.4 607.764,234.4 "/>
    <polygon style="fill: none; fill-opacity:0; stroke-width: 2; stroke: #000000" points="617.764,239.4 607.764,244.4 610.264,239.4 607.764,234.4 "/>
  </g>
  <g>
    <path style="fill: none; fill-opacity:0; stroke-width: 2; stroke-linejoin: round; stroke: #000000" d="M 540,88 A 8,8 0 0 0 532,80"/>
    <line style="fill: none; fill-opacity:0; stroke-width: 2; stroke-linejoin: round; stroke: #000000" x1="460" y1="80" x2="532" y2="80"/>
    <path style="fill: none; fill-opacity:0; stroke-width: 2; stroke-linejoin: round; stroke: #000000" d="M 540,371.4 A 8,8 0 0 0 548,379.4"/>
    <line style="fill: none; fill-opacity:0; stroke-width: 2; stroke-linejoin: round; stroke: #000000" x1="540" y1="88" x2="540" y2="371.4"/>
    <line style="fill: none; fill-opacity:0; stroke-width: 2; stroke-linejoin: round; stroke: #000000" x1="548" y1="379.4" x2="610.264" y2="379.4"/>
    <polygon style="fill: #000000" points="617.764,379.4 607.764,384.4 610.264,379.4 607.764,374.4 "/>
    <polygon style="fill: none; fill-opacity:0; stroke-width: 2; stroke: #000000" points="617.764,379.4 607.764,384.4 610.264,379.4 607.764,374.4 "/>
  </g>
  <g>
    <rect style="fill: #cbdae2" x="380" y="180" width="120" height="80"/>
    <rect style="fill: none; fill-opacity:0; stroke-width: 2; stroke: #000000" x="380" y="180" width="120" height="80"/>
    <text font-size="12.7998" style="fill: #000000;text-anchor:middle;font-family:sans-serif;font-style:normal;font-weight:700" x="440" y="224.85">
      <tspan x="440" y="224.85">AGENT</tspan>
    </text>
    <text font-size="9.59985" style="fill: #000000;text-anchor:end;font-family:sans-serif;font-style:normal;font-weight:700" x="496.4" y="256.4">SERVICE</text>
  </g>
  <g>
    <path style="fill: none; fill-opacity:0; stroke-width: 2; stroke-linejoin: round; stroke: #000000" d="M 293.95,302.4 A 8,8 0 0 0 301.95,294.4"/>
    <line style="fill: none; fill-opacity:0; stroke-width: 2; stroke-linejoin: round; stroke: #000000" x1="223.9" y1="302.4" x2="293.95" y2="302.4"/>
    <path style="fill: none; fill-opacity:0; stroke-width: 2; stroke-linejoin: round; stroke: #000000" d="M 309.95,220 A 8,8 0 0 0 301.95,228"/>
    <line style="fill: none; fill-opacity:0; stroke-width: 2; stroke-linejoin: round; stroke: #000000" x1="301.95" y1="294.4" x2="301.95" y2="228"/>
    <line style="fill: none; fill-opacity:0; stroke-width: 2; stroke-linejoin: round; stroke: #000000" x1="309.95" y1="220" x2="370.264" y2="220"/>
    <polygon style="fill: #000000" points="377.764,220 367.764,225 370.264,220 367.764,215 "/>
    <polygon style="fill: none; fill-opacity:0; stroke-width: 2; stroke: #000000" points="377.764,220 367.764,225 370.264,220 367.764,215 "/>
  </g>
  <g>
    <path style="fill: none; fill-opacity:0; stroke-width: 2; stroke-linejoin: round; stroke: #000000" d="M 552,220 A 8,8 0 0 0 560,212"/>
    <line style="fill: none; fill-opacity:0; stroke-width: 2; stroke-linejoin: round; stroke: #000000" x1="500" y1="220" x2="552" y2="220"/>
    <path style="fill: none; fill-opacity:0; stroke-width: 2; stroke-linejoin: round; stroke: #000000" d="M 568,119.1 A 8,8 0 0 0 560,127.1"/>
    <line style="fill: none; fill-opacity:0; stroke-width: 2; stroke-linejoin: round; stroke: #000000" x1="560" y1="212" x2="560" y2="127.1"/>
    <line style="fill: none; fill-opacity:0; stroke-width: 2; stroke-linejoin: round; stroke: #000000" x1="568" y1="119.1" x2="610.264" y2="119.1"/>
    <polygon style="fill: #000000" points="617.764,119.1 607.764,124.1 610.264,119.1 607.764,114.1 "/>
    <polygon style="fill: none; fill-opacity:0; stroke-width: 2; stroke: #000000" points="617.764,119.1 607.764,124.1 610.264,119.1 607.764,114.1 "/>
  </g>
  <text font-size="16.1883" style="fill: #000000;text-anchor:middle;font-family:sans-serif;font-style:normal;font-weight:700" x="520" y="316.6">
    <tspan x="520" y="316.6">dsRPC</tspan>
  </text>
  <text font-size="16.1883" style="fill: #000000;text-anchor:middle;font-family:sans-serif;font-style:normal;font-weight:700" x="320" y="296.6">
    <tspan x="320" y="296.6">dsRPC</tspan>
  </text>
</svg>
